<?xml version="1.0" encoding="UTF-8" standalone="no"?>
<!-- Created with Inkscape (http://www.inkscape.org/) -->

<svg
   width="18"
   height="18"
   viewBox="0 0 18 18"
   version="1.1"
   id="svg1"
   xml:space="preserve"
   inkscape:version="1.4.3 (0d15f75042, 2025-12-25)"
   sodipodi:docname="hunger.svg"
   inkscape:export-filename="applebw3.png"
   inkscape:export-xdpi="96"
   inkscape:export-ydpi="96"
   xmlns:inkscape="http://www.inkscape.org/namespaces/inkscape"
   xmlns:sodipodi="http://sodipodi.sourceforge.net/DTD/sodipodi-0.dtd"
   xmlns="http://www.w3.org/2000/svg"
   xmlns:svg="http://www.w3.org/2000/svg"><sodipodi:namedview
     id="namedview1"
     pagecolor="#ffffff"
     bordercolor="#000000"
     borderopacity="0.25"
     inkscape:showpageshadow="2"
     inkscape:pageopacity="0.0"
     inkscape:pagecheckerboard="true"
     inkscape:deskcolor="#d1d1d1"
     inkscape:document-units="px"
     showgrid="true"
     inkscape:zoom="44.907303"
     inkscape:cx="10.488272"
     inkscape:cy="12.214049"
     inkscape:window-width="1848"
     inkscape:window-height="1010"
     inkscape:window-x="36"
     inkscape:window-y="34"
     inkscape:window-maximized="1"
     inkscape:current-layer="layer1"><inkscape:grid
       id="grid1"
       units="px"
       originx="0"
       originy="0"
       spacingx="1"
       spacingy="1"
       empcolor="#0099e5"
       empopacity="0.30196078"
       color="#0099e5"
       opacity="0.14901961"
       empspacing="5"
       enabled="true"
       visible="true" /></sodipodi:namedview><defs
     id="defs1" /><g
     inkscape:label="Layer 1"
     inkscape:groupmode="layer"
     id="layer1"><path
       id="path6"
       style="fill:#ffffff;stroke:none;stroke-width:1.11011"
       inkscape:transform-center-x="-0.4501135"
       inkscape:transform-center-y="4.8022375"
       d="M 12.605469 0.0390625 C 12.423716 0.050301644 12.235988 0.13916344 12.085938 0.33203125 C 11.897144 0.57469769 9.486701 3.9767066 9.2558594 4.3964844 C 8.7645267 5.2899566 9.3368706 6.4911497 10.310547 7.4472656 L 9.9609375 7.8710938 L 11.300781 9.0625 L 11.681641 8.4707031 C 12.933313 9.1603972 14.324757 9.3276972 15.089844 8.3320312 C 15.479315 7.8251817 17.90939 4.0073823 17.96875 3.7890625 C 18.073753 3.4028196 17.687787 2.9685776 17.277344 3.0097656 C 16.886843 3.0489502 16.767373 3.1929572 15.632812 4.984375 C 14.326971 7.0462376 14.247164 7.1260691 13.84375 6.7988281 C 13.540146 6.5525506 13.178864 6.1530585 14.318359 4.3496094 C 15.734666 2.1080588 15.725184 2.127279 15.425781 1.734375 C 14.902334 1.0474647 14.608811 1.2821361 13.263672 3.4453125 C 12.132226 5.2648354 12.045171 5.3708418 11.708984 5.3554688 C 11.06612 5.3260609 10.860757 4.8169613 12.080078 2.90625 C 12.660408 1.9968659 13.232422 1.0546875 13.232422 1.0546875 C 13.505033 0.49197254 13.069949 0.010340244 12.605469 0.0390625 z " /><path
       style="fill:#ffffff;stroke:none;stroke-width:1.26901"
       d="M 13.216629,16.911898 7.738963,10.443572 C 5.9107557,8.2847288 6.1744623,8.3718055 4.8845566,8.3981578 2.8824279,8.4390605 2.3010935,7.4666765 1.2853593,5.9352025 -2.2076183,0.66866273 2.229902,-2.3129024 6.8944707,2.2751686 7.8400792,3.2052694 8.2360957,4.1036727 7.8945706,5.8985273 7.6846366,7.0018187 7.2838871,6.6459593 12.02638,11.321844 l 3.334197,3.287366 c 0.900505,0.887857 -1.771521,2.742468 -2.143948,2.302688 z"
       id="path4"
       sodipodi:nodetypes="ccssssssc" /><path
       style="fill:#ffffff;stroke:none;stroke-width:1.13828"
       d="m 4.0216136,15.711505 3.1485181,-4.190463 1.537329,1.696321 -2.1231409,4.035018 C 6.065055,18.239241 3.6097503,16.240608 4.0216136,15.711505 Z"
       id="path5"
       inkscape:transform-center-x="1.5617526"
       inkscape:transform-center-y="2.4243255"
       sodipodi:nodetypes="cccsc" /><path
       id="path1"
       style="fill:#1a1a1a;stroke:none;stroke-width:1.17244"
       d="M 15.521484 0.033203125 C 11.971931 0.1415355 10.600447 1.7136434 10.017578 4.328125 C 14.666328 3.2712272 16.060234 2.2186755 17.179688 0.078125 C 16.579638 0.032592243 16.028563 0.017727071 15.521484 0.033203125 z M 6.4882812 0.78710938 A 0.59061274 0.56522648 0 0 0 5.96875 1.0546875 A 0.59061274 0.56522648 0 0 0 6.1601562 1.8320312 C 6.9307604 2.2882059 7.5923473 2.8896706 7.8808594 3.7089844 A 0.59061274 0.56522648 0 0 0 8.453125 4.1816406 A 0.59061274 0.56522648 0 0 0 9.0449219 3.6171875 L 9.0449219 3.4765625 L 9.015625 3.3925781 C 8.6169887 2.2148587 7.7010894 1.4156101 6.78125 0.87109375 A 0.59061274 0.56522648 0 0 0 6.4882812 0.78710938 z M 12.300781 4.9863281 C 11.96635 4.9914211 11.616698 5.0378897 11.255859 5.1289062 C 9.9796787 5.450806 8.7319131 5.7845564 6.7246094 5.203125 C 3.2420439 4.1943719 1.3793425 7.1909971 0.99023438 10.345703 C 0.49518663 14.359309 3.5114118 17.923295 5.5214844 17.960938 C 6.3333707 17.976143 7.5604068 16.967106 9.0390625 16.878906 C 10.109674 16.81505 10.395612 18.102393 12.388672 17.960938 C 15.328514 17.752288 17.496873 13.942966 16.779297 9.7421875 C 16.299752 6.9348744 14.641797 4.9506771 12.300781 4.9863281 z " /><g
       id="path2"
       style="opacity:1;fill:#000000;stroke:none;stroke-width:0.889544;stroke-dasharray:none"
       transform="matrix(1.1824162,0,0,1.1315925,-21.918232,-0.06778793)"><path
         style="baseline-shift:baseline;display:inline;overflow:visible;fill:#000000;stroke:none;stroke-width:0.889544;stroke-linecap:round;stroke-dasharray:none;enable-background:accumulate;stop-color:#000000;stop-opacity:1"
         d="m 24.007887,1.2553007 c 0.71888,0.4446682 1.390257,1.0672035 1.678348,1.95654 v 0.044467"
         id="path7" /><path
         style="baseline-shift:baseline;display:inline;overflow:visible;fill:#000000;stroke:none;stroke-width:0.889544;stroke-linecap:round;stroke-dasharray:none;enable-background:accumulate;stop-color:#000000;stop-opacity:1"
         d="m 24.271484,0.83007813 a 0.49949649,0.49949649 0 0 0 -0.6875,0.16210937 0.49949649,0.49949649 0 0 0 0.16211,0.6875 c 0.659828,0.4081416 1.225805,0.9476369 1.464843,1.6855469 l -0.01563,-0.1015625 a 0.49949649,0.49949649 0 0 0 0.490235,0.4921875 0.49949649,0.49949649 0 0 0 0.5,-0.5 V 3.1328125 l -0.02344,-0.074219 C 25.824965,2.0178307 25.049416,1.3112729 24.271484,0.83007813 Z"
         id="path8" /></g><g
       id="g13"
       style="opacity:1;fill:#000000;stroke:none;stroke-width:0.889544;stroke-dasharray:none"
       transform="matrix(1.1824162,0,0,1.1315925,-21.918232,-0.06778793)"><path
         style="baseline-shift:baseline;display:inline;overflow:visible;fill:#000000;stroke:none;stroke-width:0.889544;stroke-linecap:round;stroke-dasharray:none;enable-background:accumulate;stop-color:#000000;stop-opacity:1"
         d="m 24.007887,1.2553007 c 0.71888,0.4446682 1.390257,1.0672035 1.678348,1.95654 v 0.044467"
         id="path12" /></g><path
       id="path13"
       style="fill:#ff0000;stroke:none;stroke-width:1.17244"
       d="M 15.521484,0.03320312 C 11.971931,0.1415355 10.600447,1.7136434 10.017578,4.328125 c 4.64875,-1.0568978 6.042656,-2.1094495 7.16211,-4.25 C 16.579638,0.03259224 16.028563,0.01772707 15.521484,0.03320312 Z M 6.4882812,0.78710938 A 0.59061274,0.56522648 0 0 0 5.96875,1.0546875 0.59061274,0.56522648 0 0 0 6.1601562,1.8320312 C 6.9307604,2.288206 7.5923473,2.8896706 7.8808594,3.7089844 A 0.59061274,0.56522648 0 0 0 8.453125,4.1816406 0.59061274,0.56522648 0 0 0 9.0449219,3.6171875 V 3.4765625 L 9.015625,3.3925781 C 8.6169887,2.2148587 7.7010894,1.4156101 6.78125,0.87109375 A 0.59061274,0.56522648 0 0 0 6.4882812,0.78710938 Z M 12.300781,4.9863281 C 11.96635,4.9914211 11.616698,5.0378897 11.255859,5.1289062 9.9796791,5.450806 8.7319131,5.7845564 6.7246094,5.203125 4.577205,4.581112 3.0456074,5.4820957 2.0957031,7.0039062 A 3.3847501,3.5628951 0 0 1 2.6953125,6.9472652 3.3847501,3.5628951 0 0 1 6.0800781,10.509766 3.3847501,3.5628951 0 0 1 2.6953125,14.074219 3.3847501,3.5628951 0 0 1 1.3867188,13.796875 c 0.8509667,2.404601 2.7360181,4.137868 4.1347656,4.164063 0.8118863,0.01521 2.0389224,-0.993832 3.5175781,-1.082032 1.0706115,-0.06386 1.3565495,1.223487 3.3496095,1.082032 2.939842,-0.20865 5.108201,-4.017972 4.390625,-8.2187509 -0.479545,-2.8073131 -2.1375,-4.7915104 -4.478516,-4.755859 z" /><path
       id="path15"
       style="fill:#00ff00;stroke:none;stroke-width:1.17244"
       d="M 15.521484 0.033203125 C 11.971931 0.14153551 10.600447 1.7136434 10.017578 4.328125 C 14.666328 3.2712272 16.060234 2.2186755 17.179688 0.078125 C 16.579638 0.03259224 16.028563 0.017727075 15.521484 0.033203125 z M 6.4882812 0.78710938 A 0.59061274 0.56522648 0 0 0 5.96875 1.0546875 A 0.59061274 0.56522648 0 0 0 6.1601562 1.8320312 C 6.9307604 2.2882061 7.5923473 2.8896706 7.8808594 3.7089844 A 0.59061274 0.56522648 0 0 0 8.453125 4.1816406 A 0.59061274 0.56522648 0 0 0 9.0449219 3.6171875 L 9.0449219 3.4765625 L 9.015625 3.3925781 C 8.6169887 2.2148587 7.7010894 1.4156101 6.78125 0.87109375 A 0.59061274 0.56522648 0 0 0 6.4882812 0.78710938 z M 12.300781 4.9863281 C 11.96635 4.9914211 11.616698 5.0378897 11.255859 5.1289062 C 9.9796795 5.450806 8.7319131 5.7845564 6.7246094 5.203125 C 4.577205 4.581112 3.0456074 5.4820957 2.0957031 7.0039062 A 3.3847501 3.5628951 0 0 1 2.6953125 6.9472656 A 3.3847501 3.5628951 0 0 1 6.0800781 10.509766 A 3.3847501 3.5628951 0 0 1 2.6953125 14.074219 A 3.3847501 3.5628951 0 0 1 1.3867188 13.796875 C 2.2376855 16.201476 4.1227369 17.934743 5.5214844 17.960938 C 6.3333707 17.976147 7.5604068 16.967106 9.0390625 16.878906 C 10.109674 16.815046 10.395612 18.102392 12.388672 17.960938 C 13.30518 17.89589 14.14713 17.480213 14.849609 16.8125 A 3.7744417 4.0416589 0 0 1 12.179688 12.949219 A 3.7744417 4.0416589 0 0 1 15.955078 8.9082031 A 3.7744417 4.0416589 0 0 1 16.611328 8.96875 C 15.979358 6.5775145 14.420441 4.9540478 12.300781 4.9863281 z " /><path
       id="path16"
       style="fill:#000000;stroke:none;stroke-width:1.17244"
       d="M 15.521484,0.03320312 C 11.971931,0.14153551 10.600447,1.7136434 10.017578,4.328125 c 4.64875,-1.0568978 6.042656,-2.1094495 7.16211,-4.25 C 16.579638,0.03259224 16.028563,0.01772708 15.521484,0.03320312 Z M 6.4882812,0.78710938 C 6.2776233,0.78120603 6.0796397,0.88317501 5.96875,1.0546875 5.7976185,1.319977 5.8832586,1.6677806 6.1601562,1.8320312 6.9307604,2.2882061 7.5923473,2.8896706 7.8808594,3.7089844 7.9274862,3.9780286 8.1682007,4.176844 8.453125,4.1816406 8.7794583,4.1822671 9.044476,3.9294944 9.0449219,3.6171875 V 3.4765625 L 9.015625,3.3925781 C 8.6169887,2.2148587 7.7010894,1.4156101 6.78125,0.87109375 6.6929926,0.81896753 6.5919486,0.79000161 6.4882812,0.78710938 Z M 5.2324219,5.0078125 c 1.0009185,0.4277411 1.6490751,1.4053517 1.6484375,2.4863281 2.33e-4,0.3325352 -0.061343,0.6622639 -0.1816406,0.9726563 0.765549,0.7104974 1.2050727,1.7398521 1.2050781,2.8222651 5.511e-4,1.187061 -0.5270925,2.303955 -1.421875,3.009766 0.1017152,0.365952 0.153774,0.748157 0.1542969,1.132813 -4.26e-5,0.92588 -0.2983552,1.81803 -0.8359376,2.5 0.802318,-0.164672 1.9206416,-0.974139 3.2382813,-1.052735 0.7874226,-0.04697 1.1502035,0.636476 2.0800785,0.945313 -0.06359,-0.217619 -0.09574,-0.441375 -0.0957,-0.666016 -4.56e-4,-0.331242 0.06907,-0.659694 0.205078,-0.96875 -0.464027,-0.483431 -0.718549,-1.094838 -0.71875,-1.726562 6.51e-4,-0.628397 0.252943,-1.236662 0.71289,-1.71875 -0.70707,-0.588432 -1.109511,-1.418821 -1.109375,-2.289063 -1.3e-5,-0.6082977 0.196934,-1.2032129 0.566407,-1.7109374 C 10.451502,8.3358555 10.332373,7.8841047 10.332031,7.4257812 10.332351,6.4735476 10.84386,5.5818727 11.701172,5.0390625 11.55497,5.061749 11.406239,5.0909751 11.255859,5.1289062 9.9796803,5.450806 8.7319131,5.7845564 6.7246094,5.203125 6.1890849,5.048006 5.6918795,4.9874888 5.2324219,5.0078125 Z"
       sodipodi:nodetypes="sccscccccccccccccccccsccccccccccsc" /><path
       id="path22"
       style="fill:#ffffff;stroke:none;stroke-width:1.17244"
       d="M 0.10190627,7.6101494 C 0.18740097,11.160326 1.7506531,12.541895 4.361331,13.141573 3.3343621,8.4861185 2.2907996,7.0854702 0.15749502,5.9522687 0.10810287,6.5520132 0.08969274,7.1029813 0.10190627,7.6101494 Z m 0.6957774,9.0378666 c -0.007258,0.210616 0.0934348,0.409251 0.26423043,0.521242 0.2641834,0.172834 0.6125306,0.08943 0.7785586,-0.186403 0.4611226,-0.767653 1.0668313,-1.425356 1.8879843,-1.708591 0.2693386,-0.0449 0.4696985,-0.284325 0.476328,-0.569213 0.00273,-0.326322 -0.2483366,-0.592961 -0.5606341,-0.595416 l -0.1406225,-9.07e-4 -0.084171,0.02876 c -1.1802594,0.39105 -1.9853838,1.301789 -2.53580673,2.218106 -0.0526929,0.08792 -0.0823081,0.188776 -0.085867,0.292423 z m 4.21253613,1.282986 c 0.4341715,-0.998146 1.4159318,-1.64 2.4968819,-1.632408 0.3325296,0.0019 0.6618552,0.0656 0.9714673,0.187893 0.7154078,-0.760962 1.747568,-1.193854 2.829959,-1.186896 1.187041,0.0071 2.300517,0.541904 3.000557,1.441209 0.366599,-0.09936 0.74913,-0.14896 1.133782,-0.147009 0.925861,0.006 1.816073,0.310045 2.49457,0.852004 -0.159507,-0.803361 -0.961765,-1.926868 -1.03188,-3.244988 -0.0419,-0.787708 0.643864,-1.146082 0.958676,-2.073953 -0.218024,0.06219 -0.441982,0.0929 -0.666618,0.09142 -0.331238,-0.0017 -0.659236,-0.07332 -0.96741,-0.211307 -0.486407,0.460908 -1.099439,0.711492 -1.731151,0.707629 -0.628381,-0.0047 -1.235011,-0.260897 -1.71413,-0.723938 -0.592956,0.703281 -1.425909,1.100388 -2.29613,1.094672 -0.6082966,-0.0039 -1.2019409,-0.204695 -1.7072796,-0.577447 -0.4097444,0.225555 -0.8622521,0.341776 -1.3205683,0.33917 -0.952212,-0.0064 -1.8405778,-0.523682 -2.3778613,-1.384468 0.021746,0.146345 0.050014,0.29526 0.086977,0.445881 0.3136832,1.278224 0.6393993,2.528112 0.045066,4.531633 -0.158561,0.534516 -0.2222756,1.031322 -0.2049086,1.490901 z"
       sodipodi:nodetypes="sccssccccccccsssccccccscccccccccssss" /></g></svg>
