<?xml version="1.0" encoding="UTF-8" standalone="no"?>
<!-- Created with Inkscape (http://www.inkscape.org/) -->

<svg
   width="18"
   height="18"
   viewBox="0 0 18 18"
   version="1.1"
   id="svg1"
   xml:space="preserve"
   inkscape:version="1.4.3 (0d15f75042, 2025-12-25)"
   sodipodi:docname="hunger.svg"
   inkscape:export-filename="applew.png"
   inkscape:export-xdpi="96"
   inkscape:export-ydpi="96"
   xmlns:inkscape="http://www.inkscape.org/namespaces/inkscape"
   xmlns:sodipodi="http://sodipodi.sourceforge.net/DTD/sodipodi-0.dtd"
   xmlns="http://www.w3.org/2000/svg"
   xmlns:svg="http://www.w3.org/2000/svg"><sodipodi:namedview
     id="namedview1"
     pagecolor="#ffffff"
     bordercolor="#000000"
     borderopacity="0.25"
     inkscape:showpageshadow="2"
     inkscape:pageopacity="0.0"
     inkscape:pagecheckerboard="true"
     inkscape:deskcolor="#d1d1d1"
     inkscape:document-units="px"
     showgrid="true"
     inkscape:zoom="44.907303"
     inkscape:cx="10.187652"
     inkscape:cy="9.4528054"
     inkscape:window-width="1848"
     inkscape:window-height="1010"
     inkscape:window-x="36"
     inkscape:window-y="34"
     inkscape:window-maximized="1"
     inkscape:current-layer="layer1"><inkscape:grid
       id="grid1"
       units="px"
       originx="0"
       originy="0"
       spacingx="1"
       spacingy="1"
       empcolor="#0099e5"
       empopacity="0.30196078"
       color="#0099e5"
       opacity="0.14901961"
       empspacing="5"
       enabled="true"
       visible="true" /></sodipodi:namedview><defs
     id="defs1" /><g
     inkscape:label="Layer 1"
     inkscape:groupmode="layer"
     id="layer1"><path
       id="path6"
       style="fill:#ffffff;stroke:none;stroke-width:1.11011"
       inkscape:transform-center-x="-0.4501135"
       inkscape:transform-center-y="4.8022375"
       d="M 12.605469 0.0390625 C 12.423716 0.050301644 12.235988 0.13916344 12.085938 0.33203125 C 11.897144 0.57469769 9.486701 3.9767066 9.2558594 4.3964844 C 8.7645267 5.2899566 9.3368706 6.4911497 10.310547 7.4472656 L 9.9609375 7.8710938 L 11.300781 9.0625 L 11.681641 8.4707031 C 12.933313 9.1603972 14.324757 9.3276972 15.089844 8.3320312 C 15.479315 7.8251817 17.90939 4.0073823 17.96875 3.7890625 C 18.073753 3.4028196 17.687787 2.9685776 17.277344 3.0097656 C 16.886843 3.0489502 16.767373 3.1929572 15.632812 4.984375 C 14.326971 7.0462376 14.247164 7.1260691 13.84375 6.7988281 C 13.540146 6.5525506 13.178864 6.1530585 14.318359 4.3496094 C 15.734666 2.1080588 15.725184 2.127279 15.425781 1.734375 C 14.902334 1.0474647 14.608811 1.2821361 13.263672 3.4453125 C 12.132226 5.2648354 12.045171 5.3708418 11.708984 5.3554688 C 11.06612 5.3260609 10.860757 4.8169613 12.080078 2.90625 C 12.660408 1.9968659 13.232422 1.0546875 13.232422 1.0546875 C 13.505033 0.49197254 13.069949 0.010340244 12.605469 0.0390625 z " /><path
       style="fill:#ffffff;stroke:none;stroke-width:1.26901"
       d="M 13.216629,16.911898 7.738963,10.443572 C 5.9107557,8.2847288 6.1744623,8.3718055 4.8845566,8.3981578 2.8824279,8.4390605 2.3010935,7.4666765 1.2853593,5.9352025 -2.2076183,0.66866273 2.229902,-2.3129024 6.8944707,2.2751686 7.8400792,3.2052694 8.2360957,4.1036727 7.8945706,5.8985273 7.6846366,7.0018187 7.2838871,6.6459593 12.02638,11.321844 l 3.334197,3.287366 c 0.900505,0.887857 -1.771521,2.742468 -2.143948,2.302688 z"
       id="path4"
       sodipodi:nodetypes="ccssssssc" /><path
       style="fill:#ffffff;stroke:none;stroke-width:1.13828"
       d="m 4.0216136,15.711505 3.1485181,-4.190463 1.537329,1.696321 -2.1231409,4.035018 C 6.065055,18.239241 3.6097503,16.240608 4.0216136,15.711505 Z"
       id="path5"
       inkscape:transform-center-x="1.5617526"
       inkscape:transform-center-y="2.4243255"
       sodipodi:nodetypes="cccsc" /><path
       style="fill:#1a1a1a;stroke:none;stroke-width:1.17244"
       d="M 9.0393202,16.878384 C 7.5606645,16.966584 6.3332537,17.975517 5.5213674,17.960312 3.5112948,17.922669 0.49483757,14.359954 0.98988532,10.346348 1.3789934,7.1916419 3.2424764,4.1949416 6.7250419,5.2036947 c 2.0073037,0.5814314 3.255302,0.2462717 4.5314831,-0.075628 2.88671,-0.7281327 4.974694,1.4049049 5.522745,4.6132627 0.717576,4.2007786 -1.450032,8.0103336 -4.389874,8.2189826 -1.99306,0.141455 -2.279464,-1.145784 -3.3500758,-1.081928 z"
       id="path1"
       sodipodi:nodetypes="ssssssss" /><g
       id="path2"
       style="opacity:1;stroke-width:0.889544;stroke-dasharray:none;fill:#1a1a1a"
       transform="matrix(1.1824162,0,0,1.1315925,-21.918232,-0.06778793)"><path
         style="baseline-shift:baseline;display:inline;overflow:visible;fill:#1a1a1a;stroke-width:0.889544;stroke-linecap:round;stroke-dasharray:none;enable-background:accumulate;stop-color:#000000;stop-opacity:1"
         d="m 24.007887,1.2553007 c 0.71888,0.4446682 1.390257,1.0672035 1.678348,1.95654 v 0.044467"
         id="path7" /><path
         style="baseline-shift:baseline;display:inline;overflow:visible;fill:#1a1a1a;stroke-width:0.889544;stroke-linecap:round;stroke-dasharray:none;enable-background:accumulate;stop-color:#000000;stop-opacity:1"
         d="m 24.271484,0.83007813 a 0.49949649,0.49949649 0 0 0 -0.6875,0.16210937 0.49949649,0.49949649 0 0 0 0.16211,0.6875 c 0.659828,0.4081416 1.225805,0.9476369 1.464843,1.6855469 l -0.01563,-0.1015625 a 0.49949649,0.49949649 0 0 0 0.490235,0.4921875 0.49949649,0.49949649 0 0 0 0.5,-0.5 V 3.1328125 l -0.02344,-0.074219 C 25.824965,2.0178307 25.049416,1.3112729 24.271484,0.83007813 Z"
         id="path8" /></g><path
       style="fill:#1a1a1a;stroke:none;stroke-width:1.11088;stroke-linecap:round;stroke-dasharray:none"
       d="M 10.017337,4.3288411 C 10.683473,1.3408621 12.379102,-0.28660945 17.179501,0.07765261 16.060047,2.2182031 14.666087,3.2719433 10.017337,4.3288411 Z"
       id="path3"
       sodipodi:nodetypes="ccc"
       inkscape:transform-center-x="-3.6175057"
       inkscape:transform-center-y="-2.0381392" /></g></svg>
